<mxfile host="app.diagrams.net" modified="2023-07-26T14:48:58.493Z" agent="Mozilla/5.0 (Windows NT 10.0; Win64; x64) AppleWebKit/537.36 (KHTML, like Gecko) Chrome/115.0.0.0 Safari/537.36 Edg/115.0.1901.183" etag="j_XYbV3p4hEDY3tAihWm" version="21.6.5" type="device">
  <diagram name="Page-1" id="c4acf3e9-155e-7222-9cf6-157b1a14988f">
    <mxGraphModel dx="281" dy="364" grid="1" gridSize="10" guides="1" tooltips="1" connect="1" arrows="1" fold="1" page="1" pageScale="1" pageWidth="850" pageHeight="1100" background="none" math="0" shadow="0">
      <root>
        <mxCell id="0" />
        <mxCell id="1" parent="0" />
        <mxCell id="17acba5748e5396b-20" value="&lt;b&gt;Bot&lt;/b&gt;" style="swimlane;html=1;fontStyle=0;childLayout=stackLayout;horizontal=1;startSize=26;fillColor=none;horizontalStack=0;resizeParent=1;resizeLast=0;collapsible=1;marginBottom=0;swimlaneFillColor=#ffffff;rounded=0;shadow=0;comic=0;labelBackgroundColor=none;strokeWidth=1;fontFamily=Verdana;fontSize=10;align=center;" parent="1" vertex="1">
          <mxGeometry x="84" y="16" width="160" height="88" as="geometry">
            <mxRectangle x="84" y="16" width="60" height="30" as="alternateBounds" />
          </mxGeometry>
        </mxCell>
        <mxCell id="17acba5748e5396b-21" value="- __init__()" style="text;html=1;strokeColor=none;fillColor=none;align=left;verticalAlign=top;spacingLeft=4;spacingRight=4;whiteSpace=wrap;overflow=hidden;rotatable=0;points=[[0,0.5],[1,0.5]];portConstraint=eastwest;" parent="17acba5748e5396b-20" vertex="1">
          <mxGeometry y="26" width="160" height="26" as="geometry" />
        </mxCell>
        <mxCell id="17acba5748e5396b-26" value="+ handel(action:str)" style="text;html=1;strokeColor=none;fillColor=none;align=left;verticalAlign=top;spacingLeft=4;spacingRight=4;whiteSpace=wrap;overflow=hidden;rotatable=0;points=[[0,0.5],[1,0.5]];portConstraint=eastwest;" parent="17acba5748e5396b-20" vertex="1">
          <mxGeometry y="52" width="160" height="26" as="geometry" />
        </mxCell>
        <mxCell id="5d2195bd80daf111-15" value="&lt;p style=&quot;margin:0px;margin-top:4px;text-align:center;&quot;&gt;&lt;b&gt;Addressbook&lt;/b&gt;&lt;/p&gt;&lt;hr size=&quot;1&quot;&gt;&lt;p style=&quot;margin:0px;margin-left:4px;&quot;&gt;&lt;/p&gt;&lt;p style=&quot;margin:0px;margin-left:4px;&quot;&gt;- __init__(self)&lt;/p&gt;&lt;p style=&quot;margin:0px;margin-left:4px;&quot;&gt;-&amp;nbsp;__str__(self)&lt;/p&gt;&lt;p style=&quot;margin:0px;margin-left:4px;&quot;&gt;-&amp;nbsp;__next__(self)&lt;/p&gt;&lt;p style=&quot;margin:0px;margin-left:4px;&quot;&gt;-&amp;nbsp;__iter__(self)&lt;/p&gt;&lt;p style=&quot;margin:0px;margin-left:4px;&quot;&gt;-&amp;nbsp;__setitem__(self, index, record)&lt;/p&gt;&lt;p style=&quot;margin:0px;margin-left:4px;&quot;&gt;-&amp;nbsp;__getitem__(self, index)&lt;/p&gt;&lt;p style=&quot;margin:0px;margin-left:4px;&quot;&gt;-&amp;nbsp;__get_current_week(self)&lt;/p&gt;&lt;p style=&quot;margin:0px;margin-left:4px;&quot;&gt;+&amp;nbsp;log(self, action)&lt;/p&gt;&lt;p style=&quot;margin:0px;margin-left:4px;&quot;&gt;+&amp;nbsp;add(self, record)&lt;/p&gt;&lt;p style=&quot;margin:0px;margin-left:4px;&quot;&gt;+&amp;nbsp;save(self, file_name)&lt;/p&gt;&lt;p style=&quot;margin:0px;margin-left:4px;&quot;&gt;+&amp;nbsp;load(self, file_name)&lt;/p&gt;&lt;p style=&quot;margin:0px;margin-left:4px;&quot;&gt;+&amp;nbsp;search(self, pattern, category)&lt;/p&gt;&lt;p style=&quot;margin:0px;margin-left:4px;&quot;&gt;+&amp;nbsp;edit(self, contact_name,&lt;/p&gt;&lt;p style=&quot;margin:0px;margin-left:4px;&quot;&gt;&amp;nbsp; &amp;nbsp;parameter, new_value)&lt;/p&gt;&lt;p style=&quot;margin:0px;margin-left:4px;&quot;&gt;+&amp;nbsp;remove(self, pattern)&lt;/p&gt;&lt;p style=&quot;margin:0px;margin-left:4px;&quot;&gt;+&amp;nbsp;congratulate(self)&lt;/p&gt;" style="verticalAlign=top;align=left;overflow=fill;fontSize=12;fontFamily=Helvetica;html=1;rounded=0;shadow=0;comic=0;labelBackgroundColor=none;strokeWidth=1" parent="1" vertex="1">
          <mxGeometry x="343" y="10" width="190" height="270" as="geometry" />
        </mxCell>
        <mxCell id="5d2195bd80daf111-18" value="&lt;p style=&quot;margin:0px;margin-top:4px;text-align:center;&quot;&gt;&lt;b&gt;&lt;i&gt;Interface&lt;/i&gt;&lt;/b&gt;&lt;/p&gt;&lt;hr size=&quot;1&quot;&gt;&lt;p style=&quot;margin:0px;margin-left:4px;&quot;&gt;&lt;span style=&quot;background-color: initial;&quot;&gt;+ action(self)&lt;/span&gt;&lt;/p&gt;" style="verticalAlign=top;align=left;overflow=fill;fontSize=12;fontFamily=Helvetica;html=1;rounded=0;shadow=0;comic=0;labelBackgroundColor=none;strokeWidth=1" parent="1" vertex="1">
          <mxGeometry x="71" y="133" width="190" height="60" as="geometry" />
        </mxCell>
        <mxCell id="5d2195bd80daf111-19" value="&lt;p style=&quot;margin:0px;margin-top:4px;text-align:center;&quot;&gt;&lt;b&gt;Add&lt;/b&gt;&lt;/p&gt;&lt;hr size=&quot;1&quot;&gt;&lt;p style=&quot;margin:0px;margin-left:4px;&quot;&gt;&lt;/p&gt;&lt;p style=&quot;margin:0px;margin-left:4px;&quot;&gt;- __init__(self, book: Addressbook)&lt;br&gt;+ action(self)&lt;/p&gt;" style="verticalAlign=top;align=left;overflow=fill;fontSize=12;fontFamily=Helvetica;html=1;rounded=0;shadow=0;comic=0;labelBackgroundColor=none;strokeWidth=1" parent="1" vertex="1">
          <mxGeometry x="71" y="212" width="190" height="75" as="geometry" />
        </mxCell>
        <mxCell id="Ik7DHSccxRnJs0WGpAKZ-1" value="&lt;p style=&quot;margin:0px;margin-top:4px;text-align:center;&quot;&gt;&lt;b&gt;Search&lt;/b&gt;&lt;/p&gt;&lt;hr size=&quot;1&quot;&gt;&lt;p style=&quot;margin:0px;margin-left:4px;&quot;&gt;&lt;/p&gt;&lt;p style=&quot;margin:0px;margin-left:4px;&quot;&gt;- __init__(self, book: Addressbook)&lt;br&gt;+ action(self)&lt;/p&gt;" style="verticalAlign=top;align=left;overflow=fill;fontSize=12;fontFamily=Helvetica;html=1;rounded=0;shadow=0;comic=0;labelBackgroundColor=none;strokeWidth=1" vertex="1" parent="1">
          <mxGeometry x="72" y="306" width="190" height="75" as="geometry" />
        </mxCell>
        <mxCell id="Ik7DHSccxRnJs0WGpAKZ-2" value="&lt;p style=&quot;margin:0px;margin-top:4px;text-align:center;&quot;&gt;&lt;b&gt;Edit&lt;/b&gt;&lt;/p&gt;&lt;hr size=&quot;1&quot;&gt;&lt;p style=&quot;margin:0px;margin-left:4px;&quot;&gt;&lt;/p&gt;&lt;p style=&quot;margin:0px;margin-left:4px;&quot;&gt;- __init__(self, book: Addressbook)&lt;br&gt;+ action(self)&lt;/p&gt;" style="verticalAlign=top;align=left;overflow=fill;fontSize=12;fontFamily=Helvetica;html=1;rounded=0;shadow=0;comic=0;labelBackgroundColor=none;strokeWidth=1" vertex="1" parent="1">
          <mxGeometry x="72" y="401" width="190" height="75" as="geometry" />
        </mxCell>
        <mxCell id="Ik7DHSccxRnJs0WGpAKZ-3" value="&lt;p style=&quot;margin:0px;margin-top:4px;text-align:center;&quot;&gt;&lt;b&gt;Remove&lt;/b&gt;&lt;/p&gt;&lt;hr size=&quot;1&quot;&gt;&lt;p style=&quot;margin:0px;margin-left:4px;&quot;&gt;&lt;/p&gt;&lt;p style=&quot;margin:0px;margin-left:4px;&quot;&gt;- __init__(self, book: Addressbook)&lt;br&gt;+ action(self)&lt;/p&gt;" style="verticalAlign=top;align=left;overflow=fill;fontSize=12;fontFamily=Helvetica;html=1;rounded=0;shadow=0;comic=0;labelBackgroundColor=none;strokeWidth=1" vertex="1" parent="1">
          <mxGeometry x="71" y="497" width="190" height="75" as="geometry" />
        </mxCell>
        <mxCell id="Ik7DHSccxRnJs0WGpAKZ-4" value="&lt;p style=&quot;margin:0px;margin-top:4px;text-align:center;&quot;&gt;&lt;b&gt;Save&lt;/b&gt;&lt;/p&gt;&lt;hr size=&quot;1&quot;&gt;&lt;p style=&quot;margin:0px;margin-left:4px;&quot;&gt;&lt;/p&gt;&lt;p style=&quot;margin:0px;margin-left:4px;&quot;&gt;- __init__(self, book: Addressbook)&lt;br&gt;+ action(self)&lt;/p&gt;" style="verticalAlign=top;align=left;overflow=fill;fontSize=12;fontFamily=Helvetica;html=1;rounded=0;shadow=0;comic=0;labelBackgroundColor=none;strokeWidth=1" vertex="1" parent="1">
          <mxGeometry x="71" y="592" width="190" height="75" as="geometry" />
        </mxCell>
        <mxCell id="Ik7DHSccxRnJs0WGpAKZ-5" value="&lt;p style=&quot;margin:0px;margin-top:4px;text-align:center;&quot;&gt;&lt;b&gt;Load&lt;/b&gt;&lt;/p&gt;&lt;hr size=&quot;1&quot;&gt;&lt;p style=&quot;margin:0px;margin-left:4px;&quot;&gt;&lt;/p&gt;&lt;p style=&quot;margin:0px;margin-left:4px;&quot;&gt;- __init__(self, book: Addressbook)&lt;br&gt;+ action(self)&lt;/p&gt;" style="verticalAlign=top;align=left;overflow=fill;fontSize=12;fontFamily=Helvetica;html=1;rounded=0;shadow=0;comic=0;labelBackgroundColor=none;strokeWidth=1" vertex="1" parent="1">
          <mxGeometry x="71" y="689" width="190" height="75" as="geometry" />
        </mxCell>
        <mxCell id="Ik7DHSccxRnJs0WGpAKZ-6" value="&lt;p style=&quot;margin:0px;margin-top:4px;text-align:center;&quot;&gt;&lt;b&gt;View&lt;/b&gt;&lt;/p&gt;&lt;hr size=&quot;1&quot;&gt;&lt;p style=&quot;margin:0px;margin-left:4px;&quot;&gt;&lt;/p&gt;&lt;p style=&quot;margin:0px;margin-left:4px;&quot;&gt;- __init__(self, book: Addressbook)&lt;br&gt;+ action(self)&lt;/p&gt;" style="verticalAlign=top;align=left;overflow=fill;fontSize=12;fontFamily=Helvetica;html=1;rounded=0;shadow=0;comic=0;labelBackgroundColor=none;strokeWidth=1" vertex="1" parent="1">
          <mxGeometry x="71" y="787" width="190" height="75" as="geometry" />
        </mxCell>
        <mxCell id="Ik7DHSccxRnJs0WGpAKZ-7" value="&lt;p style=&quot;margin:0px;margin-top:4px;text-align:center;&quot;&gt;&lt;b&gt;Congratulate&lt;/b&gt;&lt;/p&gt;&lt;hr size=&quot;1&quot;&gt;&lt;p style=&quot;margin:0px;margin-left:4px;&quot;&gt;&lt;/p&gt;&lt;p style=&quot;margin:0px;margin-left:4px;&quot;&gt;- __init__(self, book: Addressbook)&lt;br&gt;+ action(self)&lt;/p&gt;" style="verticalAlign=top;align=left;overflow=fill;fontSize=12;fontFamily=Helvetica;html=1;rounded=0;shadow=0;comic=0;labelBackgroundColor=none;strokeWidth=1" vertex="1" parent="1">
          <mxGeometry x="71" y="888" width="190" height="75" as="geometry" />
        </mxCell>
        <mxCell id="Ik7DHSccxRnJs0WGpAKZ-8" value="&lt;p style=&quot;margin:0px;margin-top:4px;text-align:center;&quot;&gt;&lt;b&gt;Exit&lt;/b&gt;&lt;/p&gt;&lt;hr size=&quot;1&quot;&gt;&lt;p style=&quot;margin:0px;margin-left:4px;&quot;&gt;&lt;/p&gt;&lt;p style=&quot;margin:0px;margin-left:4px;&quot;&gt;- __init__(self, book: Addressbook)&lt;br&gt;+ action(self)&lt;/p&gt;" style="verticalAlign=top;align=left;overflow=fill;fontSize=12;fontFamily=Helvetica;html=1;rounded=0;shadow=0;comic=0;labelBackgroundColor=none;strokeWidth=1" vertex="1" parent="1">
          <mxGeometry x="71" y="987" width="190" height="75" as="geometry" />
        </mxCell>
        <mxCell id="Ik7DHSccxRnJs0WGpAKZ-10" value="" style="endArrow=block;endSize=16;endFill=0;html=1;rounded=0;fontSize=12;curved=1;" edge="1" parent="1">
          <mxGeometry width="160" relative="1" as="geometry">
            <mxPoint x="30" y="158" as="sourcePoint" />
            <mxPoint x="70" y="158" as="targetPoint" />
          </mxGeometry>
        </mxCell>
        <mxCell id="Ik7DHSccxRnJs0WGpAKZ-12" value="" style="line;strokeWidth=1;fillColor=none;align=left;verticalAlign=middle;spacingTop=-1;spacingLeft=3;spacingRight=3;rotatable=0;labelPosition=right;points=[];portConstraint=eastwest;strokeColor=inherit;fontSize=16;" vertex="1" parent="1">
          <mxGeometry x="31" y="248.5" width="40" height="8" as="geometry" />
        </mxCell>
        <mxCell id="Ik7DHSccxRnJs0WGpAKZ-13" value="" style="line;strokeWidth=1;fillColor=none;align=left;verticalAlign=middle;spacingTop=-1;spacingLeft=3;spacingRight=3;rotatable=0;labelPosition=right;points=[];portConstraint=eastwest;strokeColor=inherit;fontSize=16;" vertex="1" parent="1">
          <mxGeometry x="31" y="342.5" width="40" height="8" as="geometry" />
        </mxCell>
        <mxCell id="Ik7DHSccxRnJs0WGpAKZ-14" value="" style="line;strokeWidth=1;fillColor=none;align=left;verticalAlign=middle;spacingTop=-1;spacingLeft=3;spacingRight=3;rotatable=0;labelPosition=right;points=[];portConstraint=eastwest;strokeColor=inherit;fontSize=16;" vertex="1" parent="1">
          <mxGeometry x="31" y="433.5" width="40" height="8" as="geometry" />
        </mxCell>
        <mxCell id="Ik7DHSccxRnJs0WGpAKZ-15" value="" style="line;strokeWidth=1;fillColor=none;align=left;verticalAlign=middle;spacingTop=-1;spacingLeft=3;spacingRight=3;rotatable=0;labelPosition=right;points=[];portConstraint=eastwest;strokeColor=inherit;fontSize=16;" vertex="1" parent="1">
          <mxGeometry x="31" y="530" width="40" height="8" as="geometry" />
        </mxCell>
        <mxCell id="Ik7DHSccxRnJs0WGpAKZ-16" value="" style="line;strokeWidth=1;fillColor=none;align=left;verticalAlign=middle;spacingTop=-1;spacingLeft=3;spacingRight=3;rotatable=0;labelPosition=right;points=[];portConstraint=eastwest;strokeColor=inherit;fontSize=16;" vertex="1" parent="1">
          <mxGeometry x="31" y="627" width="40" height="8" as="geometry" />
        </mxCell>
        <mxCell id="Ik7DHSccxRnJs0WGpAKZ-17" value="" style="line;strokeWidth=1;fillColor=none;align=left;verticalAlign=middle;spacingTop=-1;spacingLeft=3;spacingRight=3;rotatable=0;labelPosition=right;points=[];portConstraint=eastwest;strokeColor=inherit;fontSize=16;" vertex="1" parent="1">
          <mxGeometry x="31" y="722" width="40" height="8" as="geometry" />
        </mxCell>
        <mxCell id="Ik7DHSccxRnJs0WGpAKZ-18" value="" style="line;strokeWidth=1;fillColor=none;align=left;verticalAlign=middle;spacingTop=-1;spacingLeft=3;spacingRight=3;rotatable=0;labelPosition=right;points=[];portConstraint=eastwest;strokeColor=inherit;fontSize=16;" vertex="1" parent="1">
          <mxGeometry x="31" y="922" width="40" height="8" as="geometry" />
        </mxCell>
        <mxCell id="Ik7DHSccxRnJs0WGpAKZ-19" value="" style="line;strokeWidth=1;fillColor=none;align=left;verticalAlign=middle;spacingTop=-1;spacingLeft=3;spacingRight=3;rotatable=0;labelPosition=right;points=[];portConstraint=eastwest;strokeColor=inherit;fontSize=16;" vertex="1" parent="1">
          <mxGeometry x="31" y="822" width="40" height="8" as="geometry" />
        </mxCell>
        <mxCell id="Ik7DHSccxRnJs0WGpAKZ-20" value="" style="line;strokeWidth=1;fillColor=none;align=left;verticalAlign=middle;spacingTop=-1;spacingLeft=3;spacingRight=3;rotatable=0;labelPosition=right;points=[];portConstraint=eastwest;strokeColor=inherit;fontSize=16;" vertex="1" parent="1">
          <mxGeometry x="31" y="1020" width="40" height="8" as="geometry" />
        </mxCell>
        <mxCell id="Ik7DHSccxRnJs0WGpAKZ-25" value="" style="endArrow=none;html=1;rounded=0;fontSize=12;startSize=8;endSize=8;curved=1;" edge="1" parent="1">
          <mxGeometry width="50" height="50" relative="1" as="geometry">
            <mxPoint x="30" y="158" as="sourcePoint" />
            <mxPoint x="31" y="1024" as="targetPoint" />
          </mxGeometry>
        </mxCell>
        <mxCell id="Ik7DHSccxRnJs0WGpAKZ-38" value="" style="line;strokeWidth=1;fillColor=none;align=left;verticalAlign=middle;spacingTop=-1;spacingLeft=3;spacingRight=3;rotatable=0;labelPosition=right;points=[];portConstraint=eastwest;strokeColor=inherit;fontSize=16;" vertex="1" parent="1">
          <mxGeometry x="262" y="1022" width="40" height="8" as="geometry" />
        </mxCell>
        <mxCell id="Ik7DHSccxRnJs0WGpAKZ-39" value="" style="endArrow=none;html=1;rounded=0;fontSize=12;startSize=8;endSize=8;curved=1;exitX=0.949;exitY=0.281;exitDx=0;exitDy=0;exitPerimeter=0;" edge="1" parent="1">
          <mxGeometry width="50" height="50" relative="1" as="geometry">
            <mxPoint x="301.96000000000004" y="1026.248" as="sourcePoint" />
            <mxPoint x="302" y="70" as="targetPoint" />
          </mxGeometry>
        </mxCell>
        <mxCell id="Ik7DHSccxRnJs0WGpAKZ-40" value="" style="endArrow=none;html=1;rounded=0;fontSize=12;startSize=8;endSize=8;curved=1;" edge="1" parent="1">
          <mxGeometry width="50" height="50" relative="1" as="geometry">
            <mxPoint x="246" y="70" as="sourcePoint" />
            <mxPoint x="302" y="70" as="targetPoint" />
          </mxGeometry>
        </mxCell>
        <mxCell id="Ik7DHSccxRnJs0WGpAKZ-41" value="" style="endArrow=classic;html=1;rounded=0;fontSize=12;startSize=8;endSize=8;curved=1;" edge="1" parent="1">
          <mxGeometry width="50" height="50" relative="1" as="geometry">
            <mxPoint x="300" y="1026" as="sourcePoint" />
            <mxPoint x="261" y="1025.5" as="targetPoint" />
          </mxGeometry>
        </mxCell>
        <mxCell id="Ik7DHSccxRnJs0WGpAKZ-43" value="" style="endArrow=classic;html=1;rounded=0;fontSize=12;startSize=8;endSize=8;curved=1;" edge="1" parent="1">
          <mxGeometry width="50" height="50" relative="1" as="geometry">
            <mxPoint x="302" y="932" as="sourcePoint" />
            <mxPoint x="263" y="931.5" as="targetPoint" />
          </mxGeometry>
        </mxCell>
        <mxCell id="Ik7DHSccxRnJs0WGpAKZ-45" value="" style="endArrow=classic;html=1;rounded=0;fontSize=12;startSize=8;endSize=8;curved=1;" edge="1" parent="1">
          <mxGeometry width="50" height="50" relative="1" as="geometry">
            <mxPoint x="302" y="827" as="sourcePoint" />
            <mxPoint x="263" y="826.5" as="targetPoint" />
          </mxGeometry>
        </mxCell>
        <mxCell id="Ik7DHSccxRnJs0WGpAKZ-46" value="" style="endArrow=classic;html=1;rounded=0;fontSize=12;startSize=8;endSize=8;curved=1;" edge="1" parent="1">
          <mxGeometry width="50" height="50" relative="1" as="geometry">
            <mxPoint x="302" y="728" as="sourcePoint" />
            <mxPoint x="263" y="727.5" as="targetPoint" />
          </mxGeometry>
        </mxCell>
        <mxCell id="Ik7DHSccxRnJs0WGpAKZ-47" value="" style="endArrow=classic;html=1;rounded=0;fontSize=12;startSize=8;endSize=8;curved=1;" edge="1" parent="1">
          <mxGeometry width="50" height="50" relative="1" as="geometry">
            <mxPoint x="302" y="633" as="sourcePoint" />
            <mxPoint x="263" y="632.5" as="targetPoint" />
          </mxGeometry>
        </mxCell>
        <mxCell id="Ik7DHSccxRnJs0WGpAKZ-48" value="" style="endArrow=classic;html=1;rounded=0;fontSize=12;startSize=8;endSize=8;curved=1;" edge="1" parent="1">
          <mxGeometry width="50" height="50" relative="1" as="geometry">
            <mxPoint x="302" y="535" as="sourcePoint" />
            <mxPoint x="263" y="534.5" as="targetPoint" />
          </mxGeometry>
        </mxCell>
        <mxCell id="Ik7DHSccxRnJs0WGpAKZ-49" value="" style="endArrow=classic;html=1;rounded=0;fontSize=12;startSize=8;endSize=8;curved=1;" edge="1" parent="1">
          <mxGeometry width="50" height="50" relative="1" as="geometry">
            <mxPoint x="302" y="441" as="sourcePoint" />
            <mxPoint x="263" y="440.5" as="targetPoint" />
          </mxGeometry>
        </mxCell>
        <mxCell id="Ik7DHSccxRnJs0WGpAKZ-50" value="" style="endArrow=classic;html=1;rounded=0;fontSize=12;startSize=8;endSize=8;curved=1;" edge="1" parent="1">
          <mxGeometry width="50" height="50" relative="1" as="geometry">
            <mxPoint x="302" y="346" as="sourcePoint" />
            <mxPoint x="263" y="345.5" as="targetPoint" />
          </mxGeometry>
        </mxCell>
        <mxCell id="Ik7DHSccxRnJs0WGpAKZ-51" value="" style="endArrow=classic;html=1;rounded=0;fontSize=12;startSize=8;endSize=8;curved=1;" edge="1" parent="1">
          <mxGeometry width="50" height="50" relative="1" as="geometry">
            <mxPoint x="302" y="248" as="sourcePoint" />
            <mxPoint x="263" y="247.5" as="targetPoint" />
          </mxGeometry>
        </mxCell>
        <mxCell id="Ik7DHSccxRnJs0WGpAKZ-53" value="&lt;b&gt;Record&lt;/b&gt;" style="swimlane;html=1;fontStyle=0;childLayout=stackLayout;horizontal=1;startSize=26;fillColor=none;horizontalStack=0;resizeParent=1;resizeLast=0;collapsible=1;marginBottom=0;swimlaneFillColor=#ffffff;rounded=0;shadow=0;comic=0;labelBackgroundColor=none;strokeWidth=1;fontFamily=Verdana;fontSize=10;align=center;" vertex="1" parent="1">
          <mxGeometry x="600" y="26" width="187" height="96" as="geometry">
            <mxRectangle x="84" y="16" width="60" height="30" as="alternateBounds" />
          </mxGeometry>
        </mxCell>
        <mxCell id="Ik7DHSccxRnJs0WGpAKZ-54" value="- __init__(self, name, phones,&amp;nbsp; birthday, email, status, note: str)" style="text;html=1;strokeColor=none;fillColor=none;align=left;verticalAlign=top;spacingLeft=4;spacingRight=4;whiteSpace=wrap;overflow=hidden;rotatable=0;points=[[0,0.5],[1,0.5]];portConstraint=eastwest;" vertex="1" parent="Ik7DHSccxRnJs0WGpAKZ-53">
          <mxGeometry y="26" width="187" height="44" as="geometry" />
        </mxCell>
        <mxCell id="Ik7DHSccxRnJs0WGpAKZ-55" value="+ days_to_birthday(self)" style="text;html=1;strokeColor=none;fillColor=none;align=left;verticalAlign=top;spacingLeft=4;spacingRight=4;whiteSpace=wrap;overflow=hidden;rotatable=0;points=[[0,0.5],[1,0.5]];portConstraint=eastwest;" vertex="1" parent="Ik7DHSccxRnJs0WGpAKZ-53">
          <mxGeometry y="70" width="187" height="26" as="geometry" />
        </mxCell>
        <mxCell id="Ik7DHSccxRnJs0WGpAKZ-56" value="&lt;p style=&quot;margin:0px;margin-top:4px;text-align:center;&quot;&gt;&lt;b&gt;&lt;i&gt;Field&lt;/i&gt;&lt;/b&gt;&lt;/p&gt;&lt;hr size=&quot;1&quot;&gt;&lt;p style=&quot;margin:0px;margin-left:4px;&quot;&gt;-&amp;nbsp;__getitem__(self)&lt;/p&gt;" style="verticalAlign=top;align=left;overflow=fill;fontSize=12;fontFamily=Helvetica;html=1;rounded=0;shadow=0;comic=0;labelBackgroundColor=none;strokeWidth=1" vertex="1" parent="1">
          <mxGeometry x="598" y="143" width="190" height="60" as="geometry" />
        </mxCell>
        <mxCell id="Ik7DHSccxRnJs0WGpAKZ-57" value="&lt;p style=&quot;margin:0px;margin-top:4px;text-align:center;&quot;&gt;&lt;b&gt;Name&lt;/b&gt;&lt;/p&gt;&lt;hr size=&quot;1&quot;&gt;&lt;p style=&quot;margin:0px;margin-left:4px;&quot;&gt;&lt;/p&gt;&lt;p style=&quot;margin:0px;margin-left:4px;&quot;&gt;- __init__(self, value: str)&lt;br&gt;-&amp;nbsp;__getitem__(self)&lt;br&gt;&lt;/p&gt;" style="verticalAlign=top;align=left;overflow=fill;fontSize=12;fontFamily=Helvetica;html=1;rounded=0;shadow=0;comic=0;labelBackgroundColor=none;strokeWidth=1" vertex="1" parent="1">
          <mxGeometry x="598" y="222" width="190" height="75" as="geometry" />
        </mxCell>
        <mxCell id="Ik7DHSccxRnJs0WGpAKZ-58" value="&lt;p style=&quot;margin:0px;margin-top:4px;text-align:center;&quot;&gt;&lt;b&gt;Phone&lt;/b&gt;&lt;/p&gt;&lt;hr size=&quot;1&quot;&gt;&lt;p style=&quot;margin:0px;margin-left:4px;&quot;&gt;&lt;/p&gt;&lt;p style=&quot;margin:0px;margin-left:4px;&quot;&gt;- __init__(self, value: str)&lt;br style=&quot;border-color: var(--border-color);&quot;&gt;-&amp;nbsp;__getitem__(self)&lt;br&gt;&lt;/p&gt;" style="verticalAlign=top;align=left;overflow=fill;fontSize=12;fontFamily=Helvetica;html=1;rounded=0;shadow=0;comic=0;labelBackgroundColor=none;strokeWidth=1" vertex="1" parent="1">
          <mxGeometry x="599" y="316" width="190" height="75" as="geometry" />
        </mxCell>
        <mxCell id="Ik7DHSccxRnJs0WGpAKZ-59" value="&lt;p style=&quot;margin:0px;margin-top:4px;text-align:center;&quot;&gt;&lt;b&gt;Birthday&lt;/b&gt;&lt;/p&gt;&lt;hr size=&quot;1&quot;&gt;&lt;p style=&quot;margin:0px;margin-left:4px;&quot;&gt;&lt;/p&gt;&lt;p style=&quot;margin:0px;margin-left:4px;&quot;&gt;- __init__(self, value: str)&lt;br style=&quot;border-color: var(--border-color);&quot;&gt;-&amp;nbsp;__getitem__(self)&lt;br&gt;&lt;/p&gt;" style="verticalAlign=top;align=left;overflow=fill;fontSize=12;fontFamily=Helvetica;html=1;rounded=0;shadow=0;comic=0;labelBackgroundColor=none;strokeWidth=1" vertex="1" parent="1">
          <mxGeometry x="599" y="411" width="190" height="75" as="geometry" />
        </mxCell>
        <mxCell id="Ik7DHSccxRnJs0WGpAKZ-60" value="&lt;p style=&quot;margin:0px;margin-top:4px;text-align:center;&quot;&gt;&lt;b&gt;Email&lt;/b&gt;&lt;/p&gt;&lt;hr size=&quot;1&quot;&gt;&lt;p style=&quot;margin:0px;margin-left:4px;&quot;&gt;&lt;/p&gt;&lt;p style=&quot;margin:0px;margin-left:4px;&quot;&gt;- __init__(self, value: str)&lt;br style=&quot;border-color: var(--border-color);&quot;&gt;-&amp;nbsp;__getitem__(self)&lt;br&gt;&lt;/p&gt;" style="verticalAlign=top;align=left;overflow=fill;fontSize=12;fontFamily=Helvetica;html=1;rounded=0;shadow=0;comic=0;labelBackgroundColor=none;strokeWidth=1" vertex="1" parent="1">
          <mxGeometry x="598" y="507" width="190" height="75" as="geometry" />
        </mxCell>
        <mxCell id="Ik7DHSccxRnJs0WGpAKZ-61" value="&lt;p style=&quot;margin:0px;margin-top:4px;text-align:center;&quot;&gt;&lt;b&gt;Status&lt;/b&gt;&lt;/p&gt;&lt;hr size=&quot;1&quot;&gt;&lt;p style=&quot;margin:0px;margin-left:4px;&quot;&gt;&lt;/p&gt;&lt;p style=&quot;margin:0px;margin-left:4px;&quot;&gt;- __init__(self, value: str)&lt;br style=&quot;border-color: var(--border-color);&quot;&gt;-&amp;nbsp;__getitem__(self)&lt;br&gt;&lt;/p&gt;" style="verticalAlign=top;align=left;overflow=fill;fontSize=12;fontFamily=Helvetica;html=1;rounded=0;shadow=0;comic=0;labelBackgroundColor=none;strokeWidth=1" vertex="1" parent="1">
          <mxGeometry x="598" y="602" width="190" height="75" as="geometry" />
        </mxCell>
        <mxCell id="Ik7DHSccxRnJs0WGpAKZ-62" value="" style="endArrow=block;endSize=16;endFill=0;html=1;rounded=0;fontSize=12;curved=1;" edge="1" parent="1">
          <mxGeometry width="160" relative="1" as="geometry">
            <mxPoint x="557" y="168" as="sourcePoint" />
            <mxPoint x="597" y="168" as="targetPoint" />
          </mxGeometry>
        </mxCell>
        <mxCell id="Ik7DHSccxRnJs0WGpAKZ-63" value="" style="line;strokeWidth=1;fillColor=none;align=left;verticalAlign=middle;spacingTop=-1;spacingLeft=3;spacingRight=3;rotatable=0;labelPosition=right;points=[];portConstraint=eastwest;strokeColor=inherit;fontSize=16;" vertex="1" parent="1">
          <mxGeometry x="558" y="258.5" width="40" height="8" as="geometry" />
        </mxCell>
        <mxCell id="Ik7DHSccxRnJs0WGpAKZ-64" value="" style="line;strokeWidth=1;fillColor=none;align=left;verticalAlign=middle;spacingTop=-1;spacingLeft=3;spacingRight=3;rotatable=0;labelPosition=right;points=[];portConstraint=eastwest;strokeColor=inherit;fontSize=16;" vertex="1" parent="1">
          <mxGeometry x="558" y="352.5" width="40" height="8" as="geometry" />
        </mxCell>
        <mxCell id="Ik7DHSccxRnJs0WGpAKZ-65" value="" style="line;strokeWidth=1;fillColor=none;align=left;verticalAlign=middle;spacingTop=-1;spacingLeft=3;spacingRight=3;rotatable=0;labelPosition=right;points=[];portConstraint=eastwest;strokeColor=inherit;fontSize=16;" vertex="1" parent="1">
          <mxGeometry x="558" y="443.5" width="40" height="8" as="geometry" />
        </mxCell>
        <mxCell id="Ik7DHSccxRnJs0WGpAKZ-66" value="" style="line;strokeWidth=1;fillColor=none;align=left;verticalAlign=middle;spacingTop=-1;spacingLeft=3;spacingRight=3;rotatable=0;labelPosition=right;points=[];portConstraint=eastwest;strokeColor=inherit;fontSize=16;" vertex="1" parent="1">
          <mxGeometry x="558" y="540" width="40" height="8" as="geometry" />
        </mxCell>
        <mxCell id="Ik7DHSccxRnJs0WGpAKZ-67" value="" style="line;strokeWidth=1;fillColor=none;align=left;verticalAlign=middle;spacingTop=-1;spacingLeft=3;spacingRight=3;rotatable=0;labelPosition=right;points=[];portConstraint=eastwest;strokeColor=inherit;fontSize=16;" vertex="1" parent="1">
          <mxGeometry x="558" y="637" width="40" height="8" as="geometry" />
        </mxCell>
        <mxCell id="Ik7DHSccxRnJs0WGpAKZ-69" value="" style="endArrow=classic;html=1;rounded=0;fontSize=12;startSize=8;endSize=8;curved=1;" edge="1" parent="1">
          <mxGeometry width="50" height="50" relative="1" as="geometry">
            <mxPoint x="830" y="643" as="sourcePoint" />
            <mxPoint x="791" y="642.5" as="targetPoint" />
          </mxGeometry>
        </mxCell>
        <mxCell id="Ik7DHSccxRnJs0WGpAKZ-70" value="" style="endArrow=classic;html=1;rounded=0;fontSize=12;startSize=8;endSize=8;curved=1;" edge="1" parent="1">
          <mxGeometry width="50" height="50" relative="1" as="geometry">
            <mxPoint x="830" y="545" as="sourcePoint" />
            <mxPoint x="791" y="544.5" as="targetPoint" />
          </mxGeometry>
        </mxCell>
        <mxCell id="Ik7DHSccxRnJs0WGpAKZ-71" value="" style="endArrow=classic;html=1;rounded=0;fontSize=12;startSize=8;endSize=8;curved=1;" edge="1" parent="1">
          <mxGeometry width="50" height="50" relative="1" as="geometry">
            <mxPoint x="830" y="451" as="sourcePoint" />
            <mxPoint x="791" y="450.5" as="targetPoint" />
          </mxGeometry>
        </mxCell>
        <mxCell id="Ik7DHSccxRnJs0WGpAKZ-72" value="" style="endArrow=classic;html=1;rounded=0;fontSize=12;startSize=8;endSize=8;curved=1;" edge="1" parent="1">
          <mxGeometry width="50" height="50" relative="1" as="geometry">
            <mxPoint x="830" y="356" as="sourcePoint" />
            <mxPoint x="791" y="355.5" as="targetPoint" />
          </mxGeometry>
        </mxCell>
        <mxCell id="Ik7DHSccxRnJs0WGpAKZ-73" value="" style="endArrow=classic;html=1;rounded=0;fontSize=12;startSize=8;endSize=8;curved=1;" edge="1" parent="1">
          <mxGeometry width="50" height="50" relative="1" as="geometry">
            <mxPoint x="830" y="258" as="sourcePoint" />
            <mxPoint x="791" y="257.5" as="targetPoint" />
          </mxGeometry>
        </mxCell>
        <mxCell id="Ik7DHSccxRnJs0WGpAKZ-74" value="&lt;p style=&quot;margin:0px;margin-top:4px;text-align:center;&quot;&gt;&lt;b&gt;Nots&lt;/b&gt;&lt;/p&gt;&lt;hr size=&quot;1&quot;&gt;&lt;p style=&quot;margin:0px;margin-left:4px;&quot;&gt;&lt;/p&gt;&lt;p style=&quot;margin:0px;margin-left:4px;&quot;&gt;- __init__(self, value: str)&lt;br style=&quot;border-color: var(--border-color);&quot;&gt;-&amp;nbsp;__getitem__(self)&lt;br&gt;&lt;/p&gt;" style="verticalAlign=top;align=left;overflow=fill;fontSize=12;fontFamily=Helvetica;html=1;rounded=0;shadow=0;comic=0;labelBackgroundColor=none;strokeWidth=1" vertex="1" parent="1">
          <mxGeometry x="597" y="698" width="190" height="75" as="geometry" />
        </mxCell>
        <mxCell id="Ik7DHSccxRnJs0WGpAKZ-75" value="" style="line;strokeWidth=1;fillColor=none;align=left;verticalAlign=middle;spacingTop=-1;spacingLeft=3;spacingRight=3;rotatable=0;labelPosition=right;points=[];portConstraint=eastwest;strokeColor=inherit;fontSize=16;" vertex="1" parent="1">
          <mxGeometry x="557" y="731" width="40" height="8" as="geometry" />
        </mxCell>
        <mxCell id="Ik7DHSccxRnJs0WGpAKZ-76" value="" style="endArrow=classic;html=1;rounded=0;fontSize=12;startSize=8;endSize=8;curved=1;" edge="1" parent="1">
          <mxGeometry width="50" height="50" relative="1" as="geometry">
            <mxPoint x="829" y="739" as="sourcePoint" />
            <mxPoint x="790" y="738.5" as="targetPoint" />
          </mxGeometry>
        </mxCell>
        <mxCell id="Ik7DHSccxRnJs0WGpAKZ-77" value="" style="endArrow=none;html=1;rounded=0;fontSize=12;startSize=8;endSize=8;curved=1;" edge="1" parent="1">
          <mxGeometry width="50" height="50" relative="1" as="geometry">
            <mxPoint x="830" y="739" as="sourcePoint" />
            <mxPoint x="830" y="79" as="targetPoint" />
          </mxGeometry>
        </mxCell>
        <mxCell id="Ik7DHSccxRnJs0WGpAKZ-78" value="" style="endArrow=diamondThin;endFill=1;endSize=24;html=1;rounded=0;fontSize=12;curved=1;entryX=1.009;entryY=0.633;entryDx=0;entryDy=0;entryPerimeter=0;" edge="1" parent="1" target="Ik7DHSccxRnJs0WGpAKZ-54">
          <mxGeometry width="160" relative="1" as="geometry">
            <mxPoint x="830" y="79" as="sourcePoint" />
            <mxPoint x="800" y="79" as="targetPoint" />
          </mxGeometry>
        </mxCell>
        <mxCell id="Ik7DHSccxRnJs0WGpAKZ-80" value="" style="endArrow=none;html=1;rounded=0;fontSize=12;startSize=8;endSize=8;curved=1;exitX=0.05;exitY=0.304;exitDx=0;exitDy=0;exitPerimeter=0;" edge="1" parent="1">
          <mxGeometry width="50" height="50" relative="1" as="geometry">
            <mxPoint x="558" y="734.4319999999998" as="sourcePoint" />
            <mxPoint x="558" y="169" as="targetPoint" />
          </mxGeometry>
        </mxCell>
        <mxCell id="Ik7DHSccxRnJs0WGpAKZ-81" value="" style="endArrow=open;html=1;endSize=12;startArrow=diamondThin;startSize=14;startFill=1;edgeStyle=orthogonalEdgeStyle;align=left;verticalAlign=bottom;rounded=0;fontSize=12;curved=1;entryX=1.005;entryY=0.462;entryDx=0;entryDy=0;entryPerimeter=0;exitX=-0.019;exitY=0.501;exitDx=0;exitDy=0;exitPerimeter=0;" edge="1" parent="1">
          <mxGeometry x="-1" y="3" relative="1" as="geometry">
            <mxPoint x="597.447" y="75.04399999999998" as="sourcePoint" />
            <mxPoint x="534.95" y="75.68" as="targetPoint" />
            <Array as="points">
              <mxPoint x="567" y="75" />
            </Array>
          </mxGeometry>
        </mxCell>
        <mxCell id="Ik7DHSccxRnJs0WGpAKZ-82" value="" style="endArrow=diamondThin;endFill=0;endSize=24;html=1;rounded=0;fontSize=12;curved=1;" edge="1" parent="1">
          <mxGeometry width="160" relative="1" as="geometry">
            <mxPoint x="294" y="50" as="sourcePoint" />
            <mxPoint x="244" y="50" as="targetPoint" />
          </mxGeometry>
        </mxCell>
        <mxCell id="Ik7DHSccxRnJs0WGpAKZ-83" value="" style="endArrow=open;endFill=1;endSize=12;html=1;rounded=0;fontSize=12;curved=1;" edge="1" parent="1">
          <mxGeometry width="160" relative="1" as="geometry">
            <mxPoint x="281" y="50" as="sourcePoint" />
            <mxPoint x="341" y="50" as="targetPoint" />
          </mxGeometry>
        </mxCell>
      </root>
    </mxGraphModel>
  </diagram>
</mxfile>
